<?xml version="1.0" standalone="no"?>
<!DOCTYPE svg PUBLIC "-//W3C//DTD SVG 20010904//EN"
 "http://www.w3.org/TR/2001/REC-SVG-20010904/DTD/svg10.dtd">
<svg version="1.0" xmlns="http://www.w3.org/2000/svg"
 width="180.000000pt" height="180.000000pt" viewBox="0 0 180.000000 180.000000"
 preserveAspectRatio="xMidYMid meet">
<metadata>
Created by potrace 1.11, written by Peter Selinger 2001-2013
</metadata>
<g transform="translate(0.000000,180.000000) scale(0.100000,-0.100000)"
fill="#000000" stroke="none">
<path d="M770 1784 c-14 -2 -59 -9 -100 -15 -125 -18 -335 -80 -362 -107 -6
-6 -17 -69 -25 -142 -14 -124 -14 -132 3 -151 16 -18 17 -31 6 -192 -7 -94
-12 -294 -12 -444 l0 -271 -140 -7 c-108 -6 -140 -11 -140 -21 0 -17 13 -17
156 -2 63 6 116 9 119 6 3 -2 0 -19 -6 -37 -7 -19 -8 -54 -4 -87 6 -51 10 -57
49 -82 23 -15 44 -31 47 -37 2 -5 8 -9 12 -7 5 1 25 -6 45 -17 48 -26 182 -67
267 -82 43 -7 134 -10 253 -7 169 5 199 8 307 37 169 44 315 118 315 159 0 9
7 30 16 47 9 18 11 31 5 33 -6 2 -7 12 -1 28 6 15 6 24 0 24 -6 0 -10 -8 -11
-17 0 -10 -7 11 -15 47 -12 53 -13 98 -5 240 6 106 6 209 0 260 -23 220 -28
379 -19 595 2 55 0 107 -5 115 -35 53 -156 101 -316 125 -96 13 -368 19 -439
9z m427 -35 c162 -22 176 -27 218 -66 16 -15 33 -29 37 -29 5 -1 13 -2 20 -3
6 0 3 -8 -8 -16 -10 -8 -17 -15 -14 -15 3 -1 14 -3 24 -5 28 -5 33 -19 33 -94
1 -79 -7 -98 -32 -84 -12 7 -14 13 -6 17 17 11 13 22 -15 41 -20 13 -28 14
-40 4 -11 -9 -14 -9 -14 1 0 10 -3 10 -15 0 -8 -7 -22 -10 -30 -6 -11 4 -14 2
-9 -6 5 -8 2 -9 -10 -5 -10 4 -24 7 -32 7 -9 0 -12 5 -8 13 5 9 4 9 -5 1 -9
-9 -23 -9 -48 -2 -60 16 -74 18 -203 19 -69 1 -137 5 -152 10 -15 4 -28 3 -30
-1 -2 -5 -37 -12 -78 -16 -134 -11 -124 -13 -137 26 l-11 35 -1 -36 c-1 -31
-5 -37 -27 -42 -18 -3 -22 -1 -15 6 20 20 12 27 -29 27 -39 0 -40 -1 -34 -27
7 -25 6 -26 -25 -20 -23 5 -33 3 -37 -8 -4 -8 -24 -20 -45 -25 -21 -6 -39 -14
-39 -18 0 -4 -15 -8 -34 -9 -24 -2 -36 2 -40 13 -10 27 5 83 23 89 13 4 16 13
13 36 -3 20 -7 27 -12 18 -5 -7 -6 -18 -3 -25 2 -6 0 -15 -6 -19 -14 -8 -14
40 0 66 7 15 19 19 42 17 24 -2 32 1 35 15 2 10 0 17 -5 16 -4 -1 -12 -1 -18
0 -12 1 90 52 114 56 9 2 17 4 19 5 1 2 5 3 10 5 4 1 15 5 25 9 9 5 24 6 32 2
8 -3 15 0 16 7 0 9 2 9 6 0 2 -7 11 -13 19 -13 9 0 13 4 9 10 -3 5 9 13 27 18
25 7 34 5 36 -5 3 -11 7 -10 17 4 27 37 236 38 492 2z m-159 -259 c9 -3 55 -6
105 -8 32 -2 37 -5 37 -26 0 -20 6 -25 35 -28 19 -2 35 0 35 4 0 4 5 8 11 8 5
0 7 -4 4 -10 -3 -6 1 -7 9 -4 9 3 16 10 16 15 0 16 35 28 51 17 11 -8 11 -9
-3 -4 -10 3 -18 1 -18 -4 0 -6 8 -10 18 -10 9 0 24 -5 32 -10 13 -9 13 -11 0
-20 -11 -7 -6 -8 18 -4 21 4 32 3 32 -5 0 -6 6 -11 14 -11 7 0 16 -11 18 -25
3 -16 1 -22 -6 -18 -6 4 -3 -3 7 -15 22 -24 15 -42 -16 -43 -20 -1 -20 -2 3
-8 21 -6 25 -13 23 -42 -1 -30 0 -32 11 -16 17 23 25 22 23 -3 -1 -11 -5 -20
-10 -20 -4 0 -5 -5 -2 -10 4 -6 9 -8 13 -6 4 2 7 -19 7 -47 0 -31 -5 -52 -12
-54 -7 -3 -13 0 -13 7 0 8 -5 8 -17 1 -14 -7 -21 -5 -30 12 -11 21 -11 21 -10
-5 1 -14 5 -24 9 -22 4 2 9 0 12 -4 3 -5 17 -8 31 -7 17 2 25 -2 25 -11 0 -9
-4 -13 -9 -10 -16 10 -21 -38 -5 -54 13 -13 14 -13 8 4 -5 13 -3 17 6 14 7 -2
14 -13 15 -24 1 -10 5 -29 9 -41 5 -16 3 -23 -5 -23 -7 0 -9 -3 -6 -7 4 -3 -1
-15 -10 -26 -13 -15 -15 -21 -5 -24 6 -3 12 -11 12 -18 0 -7 -6 -16 -12 -18
-8 -4 -7 -6 4 -6 9 -1 18 7 21 17 2 9 3 -21 3 -66 -1 -68 -5 -86 -19 -93 -9
-6 -17 -17 -17 -24 0 -17 -41 -61 -52 -58 -5 2 -8 -2 -8 -7 0 -6 7 -10 15 -10
8 0 15 5 15 11 0 6 7 9 15 5 8 -3 15 -1 15 4 0 6 -6 10 -12 10 -7 0 -5 5 5 11
9 5 17 20 17 31 0 12 3 18 7 14 10 -9 11 -46 2 -46 -4 0 -6 -11 -3 -25 2 -14
0 -25 -5 -25 -5 0 -11 -10 -15 -22 -4 -15 -9 -19 -14 -11 -5 8 -18 2 -42 -18
-20 -17 -26 -26 -13 -20 27 14 36 14 28 1 -3 -5 3 -10 14 -10 12 0 21 -4 21
-10 0 -5 -5 -10 -12 -10 -6 0 -9 -3 -5 -6 5 -6 -30 -46 -36 -41 -2 1 -11 -4
-20 -12 -10 -7 -17 -10 -17 -6 0 5 -9 0 -20 -10 -11 -10 -32 -19 -46 -19 -14
-1 -29 -8 -33 -15 -5 -7 -11 -13 -14 -13 -28 0 -44 -13 -44 -34 0 -27 7 -30
25 -12 6 6 15 9 19 5 10 -11 -1 -17 -36 -22 -23 -2 -35 1 -43 14 -7 12 -19 16
-35 13 -24 -4 -43 -22 -24 -22 6 0 11 -7 11 -16 0 -13 -7 -15 -34 -11 -19 3
-36 1 -38 -4 -5 -15 -294 -24 -302 -10 -4 6 -15 11 -25 11 -10 0 -30 9 -44 20
-16 13 -28 16 -32 10 -8 -12 -16 -12 -35 0 -13 9 -13 11 0 20 10 6 11 10 3 10
-7 0 -16 1 -20 3 -5 1 -8 -7 -8 -18 0 -13 -8 -21 -24 -23 -29 -4 -52 15 -33
27 11 7 10 9 -2 14 -11 4 -16 1 -16 -10 0 -15 -2 -15 -18 0 -10 10 -27 17 -38
17 -11 0 -25 5 -32 12 -9 9 -12 9 -12 -2 0 -14 -14 -5 -16 11 -3 22 -5 23 -13
10 -16 -25 -44 7 -37 41 3 15 1 30 -5 34 -6 3 0 14 13 26 21 18 22 20 5 29 -9
6 -15 14 -12 20 3 5 -1 6 -10 3 -11 -5 -16 -2 -15 7 5 31 0 50 -12 43 -6 -4
-8 -3 -4 4 3 5 0 12 -6 15 -10 3 -10 8 1 18 8 8 11 9 7 2 -3 -6 -1 -15 5 -18
7 -5 9 1 7 16 -2 16 -9 23 -19 21 -14 -2 -17 6 -15 40 0 26 5 42 12 41 7 -1
10 6 7 17 -3 11 -9 17 -14 14 -5 -3 -9 6 -9 20 0 18 6 26 18 27 16 1 16 2 0 6
-14 3 -18 15 -18 48 0 24 5 47 10 50 6 3 10 13 10 21 0 8 -4 12 -10 9 -6 -3
-10 5 -10 19 0 14 5 28 10 31 6 3 10 -1 10 -9 0 -10 6 -13 15 -10 8 4 13 10
10 14 -3 5 2 13 11 18 11 6 13 11 5 16 -6 4 -11 2 -11 -3 0 -6 -5 -11 -11 -11
-6 0 -8 8 -5 18 6 16 5 16 -8 0 -7 -10 -16 -18 -19 -18 -7 0 0 94 9 138 l4 22
41 -21 c44 -22 60 -19 39 6 -7 9 -15 13 -18 11 -2 -3 -13 -1 -24 5 -16 9 -17
13 -6 27 11 14 11 15 -6 9 -14 -6 -17 -4 -12 9 3 8 6 22 6 30 0 10 8 12 30 8
18 -4 30 -2 30 4 0 14 -37 25 -52 16 -8 -5 -9 -2 -5 9 3 10 2 17 -3 17 -5 0
-7 7 -3 16 5 13 7 13 14 2 7 -10 9 -10 10 2 0 8 4 4 8 -10 l7 -25 12 22 c10
19 9 23 -8 28 -17 6 -18 8 -6 21 8 8 22 14 30 14 9 0 16 9 16 20 0 24 41 44
52 26 5 -7 8 -3 8 9 0 17 2 17 10 5 5 -8 10 -13 11 -10 0 3 2 13 4 23 6 34 65
62 79 39 3 -5 19 -7 35 -4 25 3 33 0 40 -19 10 -24 10 -24 10 4 1 30 10 34 30
15 11 -11 13 -10 8 3 -9 26 14 42 30 21 8 -9 12 -12 9 -6 -8 15 22 22 73 18
22 -2 41 -1 41 4 0 6 147 8 168 2z m177 -20 c3 -5 -1 -10 -9 -10 -9 0 -16 5
-16 10 0 6 4 10 9 10 6 0 13 -4 16 -10z m305 -440 c0 -5 -8 -10 -17 -10 -15 0
-16 2 -3 10 19 12 20 12 20 0z m23 -624 c7 7 -1 -45 -10 -58 -3 -5 -12 -7 -20
-4 -8 3 -11 1 -8 -4 3 -6 0 -10 -7 -10 -10 0 -9 -3 2 -10 9 -6 17 -5 21 1 3 6
6 -3 5 -19 -1 -25 -4 -29 -18 -21 -10 6 -18 14 -18 19 0 20 -38 9 -43 -12 -8
-31 1 -36 11 -7 l9 23 12 -22 c10 -19 9 -22 -16 -28 -16 -4 -34 -12 -42 -18
-11 -8 -13 -8 -7 1 4 7 2 22 -4 33 -8 15 -8 20 2 20 10 0 10 3 -1 9 -11 7 -7
13 17 25 17 9 38 26 46 38 9 12 16 17 16 11 0 -6 9 -9 20 -6 11 3 20 10 20 15
0 6 -7 8 -15 5 -8 -4 -17 -2 -20 4 -4 5 -1 8 7 7 8 -2 12 6 10 22 l-2 25 13
-23 c7 -12 16 -20 20 -16z m-1208 -60 c21 -23 47 -39 78 -46 25 -7 56 -23 68
-36 12 -13 31 -24 41 -24 11 0 17 -3 15 -7 -3 -5 14 -8 36 -8 23 0 45 -4 49
-10 5 -6 8 -6 8 2 0 6 9 9 20 6 21 -6 28 -24 8 -20 -7 2 -3 -1 10 -7 12 -5 22
-17 22 -25 0 -11 3 -12 8 -4 4 6 21 13 37 15 17 1 29 8 28 14 -1 7 9 14 22 17
14 2 25 0 25 -6 0 -5 13 -7 30 -4 16 4 32 2 35 -3 4 -6 11 -7 17 -4 6 4 13 2
17 -4 5 -8 17 -8 36 -3 17 5 24 10 17 10 -7 1 -11 5 -7 10 3 6 17 6 35 1 21
-6 34 -5 43 4 8 8 20 10 32 5 28 -11 37 -11 30 1 -3 6 5 10 19 10 26 0 43 -15
26 -23 -6 -3 -5 -4 2 -3 7 2 12 8 11 14 -3 14 16 19 97 27 36 4 69 11 75 16 5
5 20 9 35 9 20 0 22 -2 10 -10 -13 -9 -13 -10 0 -10 12 -1 11 -3 -3 -11 -9 -6
-15 -14 -12 -20 4 -5 1 -9 -4 -9 -6 0 -11 4 -11 10 0 5 -7 7 -15 4 -9 -4 -15
-19 -15 -35 0 -16 -3 -29 -6 -29 -11 0 -33 28 -27 34 4 3 -3 6 -15 6 -22 0
-26 -8 -23 -42 2 -13 -6 -18 -26 -20 -57 -3 -79 -5 -110 -12 -23 -5 -33 -4
-33 4 0 7 -5 6 -15 -3 -14 -15 -127 -16 -360 -4 -84 5 -80 4 -65 22 16 20 6
19 -14 0 -14 -14 -18 -12 -38 20 -24 37 -38 44 -38 20 0 -11 -8 -13 -32 -8
-43 8 -45 11 -14 19 14 3 26 10 26 14 0 10 -20 8 -38 -4 -8 -4 -11 -3 -10 4 2
7 -7 16 -19 21 -18 6 -23 5 -23 -7 0 -12 -4 -13 -20 -4 -11 6 -18 15 -15 20 3
4 -8 11 -25 15 -16 4 -30 11 -30 17 0 6 -7 8 -15 4 -8 -3 -19 3 -25 14 -11 21
-14 90 -3 90 4 0 21 -15 38 -34z m849 -61 c-6 -16 -24 -21 -24 -7 0 11 11 22
21 22 5 0 6 -7 3 -15z m311 -45 c-3 -5 -10 -10 -16 -10 -5 0 -9 5 -9 10 0 6 7
10 16 10 8 0 12 -4 9 -10z m-35 -10 c0 -5 -5 -10 -11 -10 -5 0 -7 5 -4 10 3 6
8 10 11 10 2 0 4 -4 4 -10z m-996 -25 c-4 -8 -10 -12 -15 -9 -14 8 -10 24 6
24 9 0 12 -6 9 -15z m291 -13 c-8 -8 -25 10 -19 20 4 6 9 5 15 -3 4 -7 6 -15
4 -17z"/>
<path d="M439 1483 c-13 -16 -12 -17 4 -4 9 7 17 15 17 17 0 8 -8 3 -21 -13z"/>
<path d="M1100 1470 c0 -5 5 -10 11 -10 5 0 7 5 4 10 -3 6 -8 10 -11 10 -2 0
-4 -4 -4 -10z"/>
<path d="M725 1460 c3 -5 8 -10 11 -10 2 0 4 5 4 10 0 6 -5 10 -11 10 -5 0 -7
-4 -4 -10z"/>
<path d="M1068 1463 c7 -3 16 -2 19 1 4 3 -2 6 -13 5 -11 0 -14 -3 -6 -6z"/>
<path d="M763 1435 c0 -8 4 -15 9 -15 4 0 8 7 8 15 0 8 -4 15 -8 15 -5 0 -9
-7 -9 -15z"/>
<path d="M575 1430 c3 -5 8 -10 11 -10 2 0 4 5 4 10 0 6 -5 10 -11 10 -5 0 -7
-4 -4 -10z"/>
<path d="M1010 1430 c8 -5 20 -10 25 -10 6 0 3 5 -5 10 -8 5 -19 10 -25 10 -5
0 -3 -5 5 -10z"/>
<path d="M822 1421 c-11 -7 -11 -9 2 -14 10 -4 16 -1 16 8 0 17 -1 17 -18 6z"/>
<path d="M1110 1406 c0 -2 7 -6 15 -10 8 -3 15 -1 15 4 0 6 -7 10 -15 10 -8 0
-15 -2 -15 -4z"/>
<path d="M720 1390 c0 -5 7 -7 15 -4 8 4 15 8 15 10 0 2 -7 4 -15 4 -8 0 -15
-4 -15 -10z"/>
<path d="M1168 1388 c6 -6 18 -8 28 -6 14 3 12 5 -9 10 -19 3 -25 2 -19 -4z"/>
<path d="M515 1380 c-3 -5 -1 -10 4 -10 6 0 11 5 11 10 0 6 -2 10 -4 10 -3 0
-8 -4 -11 -10z"/>
<path d="M1350 1379 c0 -5 19 -9 42 -9 23 0 39 2 37 5 -9 8 -79 12 -79 4z"/>
<path d="M928 1363 c7 -3 16 -2 19 1 4 3 -2 6 -13 5 -11 0 -14 -3 -6 -6z"/>
<path d="M971 1314 c0 -11 3 -14 6 -6 3 7 2 16 -1 19 -3 4 -6 -2 -5 -13z"/>
<path d="M553 1273 l-1 -38 14 34 c17 41 17 41 1 41 -8 0 -13 -14 -14 -37z"/>
<path d="M415 1289 c-9 -14 0 -22 18 -17 13 2 13 5 2 15 -10 9 -16 9 -20 2z"/>
<path d="M461 1279 c13 -24 12 -49 -1 -29 -8 13 -10 12 -10 -2 0 -20 1 -21 24
-12 17 7 22 34 6 34 -5 0 -7 6 -4 13 3 8 -2 14 -10 14 -11 0 -13 -5 -5 -18z"/>
<path d="M1273 1273 c9 -2 23 -2 30 0 6 3 -1 5 -18 5 -16 0 -22 -2 -12 -5z"/>
<path d="M841 1234 c0 -11 3 -14 6 -6 3 7 2 16 -1 19 -3 4 -6 -2 -5 -13z"/>
<path d="M420 1225 c0 -8 4 -15 10 -15 5 0 7 7 4 15 -4 8 -8 15 -10 15 -2 0
-4 -7 -4 -15z"/>
<path d="M1238 1233 c7 -3 16 -2 19 1 4 3 -2 6 -13 5 -11 0 -14 -3 -6 -6z"/>
<path d="M1301 1224 c0 -11 3 -14 6 -6 3 7 2 16 -1 19 -3 4 -6 -2 -5 -13z"/>
<path d="M1391 1214 c0 -11 3 -14 6 -6 3 7 2 16 -1 19 -3 4 -6 -2 -5 -13z"/>
<path d="M1410 1214 c0 -8 5 -12 10 -9 6 4 8 11 5 16 -9 14 -15 11 -15 -7z"/>
<path d="M1440 1191 c0 -5 7 -12 16 -15 24 -9 28 -7 14 9 -14 17 -30 20 -30 6z"/>
<path d="M400 1180 c0 -5 5 -10 10 -10 6 0 10 5 10 10 0 6 -4 10 -10 10 -5 0
-10 -4 -10 -10z"/>
<path d="M1470 1143 c0 -12 -8 -24 -17 -26 -14 -4 -13 -5 4 -6 27 -1 37 14 24
36 -9 16 -10 16 -11 -4z"/>
<path d="M552 1100 c0 -19 2 -27 5 -17 2 9 2 25 0 35 -3 9 -5 1 -5 -18z"/>
<path d="M338 1097 c-3 -19 -2 -25 4 -19 6 6 8 18 6 28 -3 14 -5 12 -10 -9z"/>
<path d="M397 1083 c-4 -3 -7 -11 -7 -17 0 -6 5 -5 12 2 6 6 9 14 7 17 -3 3
-9 2 -12 -2z"/>
<path d="M1445 1030 c-3 -5 -1 -10 4 -10 6 0 11 5 11 10 0 6 -2 10 -4 10 -3 0
-8 -4 -11 -10z"/>
<path d="M663 995 c1 -19 7 -35 12 -35 7 0 9 15 7 35 -5 46 -23 46 -19 0z"/>
<path d="M1400 1020 c0 -5 5 -10 11 -10 5 0 7 5 4 10 -3 6 -8 10 -11 10 -2 0
-4 -4 -4 -10z"/>
<path d="M437 1006 c-4 -10 -1 -13 8 -9 8 3 12 9 9 14 -7 12 -11 11 -17 -5z"/>
<path d="M553 1000 c-17 -7 -23 -17 -22 -37 l2 -28 4 28 c3 19 10 27 24 27 20
0 26 -15 9 -23 -6 -3 -5 -4 1 -3 7 1 16 12 20 24 9 24 0 27 -38 12z"/>
<path d="M735 980 c-3 -5 -1 -10 4 -10 6 0 11 5 11 10 0 6 -2 10 -4 10 -3 0
-8 -4 -11 -10z"/>
<path d="M1402 979 c15 -9 81 -9 72 0 -3 3 -23 6 -45 7 -22 0 -34 -3 -27 -7z"/>
<path d="M370 945 c0 -8 2 -15 4 -15 2 0 6 7 10 15 3 8 1 15 -4 15 -6 0 -10
-7 -10 -15z"/>
<path d="M1470 951 c0 -5 9 -11 20 -14 12 -3 20 0 20 7 0 6 -9 12 -20 13 -11
1 -20 -2 -20 -6z"/>
<path d="M1371 914 c0 -11 3 -14 6 -6 3 7 2 16 -1 19 -3 4 -6 -2 -5 -13z"/>
<path d="M1450 876 c0 -19 4 -37 9 -40 5 -4 7 3 4 14 -3 11 0 26 6 33 6 8 8
17 4 20 -15 15 -23 5 -23 -27z"/>
<path d="M1385 873 c11 -3 28 -12 37 -20 15 -13 16 -13 11 6 -4 16 -13 21 -37
20 -21 -1 -25 -3 -11 -6z"/>
<path d="M345 860 c-3 -5 -1 -10 4 -10 6 0 11 -10 11 -22 0 -27 5 -21 14 15 5
20 3 27 -8 27 -8 0 -18 -4 -21 -10z"/>
<path d="M521 858 c0 -9 -4 -25 -7 -35 -5 -17 -5 -17 6 0 6 10 9 25 7 35 -4
15 -5 15 -6 0z"/>
<path d="M386 825 c4 -8 7 -15 9 -15 2 0 5 7 9 15 3 9 0 15 -9 15 -9 0 -12 -6
-9 -15z"/>
<path d="M450 825 c0 -8 2 -15 4 -15 2 0 6 7 10 15 3 8 1 15 -4 15 -6 0 -10
-7 -10 -15z"/>
<path d="M1400 820 c-9 -6 -10 -10 -3 -10 6 0 15 5 18 10 8 12 4 12 -15 0z"/>
<path d="M1270 806 c0 -2 7 -6 15 -10 8 -3 15 -1 15 4 0 6 -7 10 -15 10 -8 0
-15 -2 -15 -4z"/>
<path d="M504 785 c-3 -8 -4 -20 -2 -27 3 -7 7 -1 10 15 6 29 1 36 -8 12z"/>
<path d="M1176 785 c4 -8 8 -15 10 -15 2 0 4 7 4 15 0 8 -4 15 -10 15 -5 0 -7
-7 -4 -15z"/>
<path d="M457 773 c-4 -3 -7 -13 -7 -21 0 -18 13 -7 16 13 2 17 1 18 -9 8z"/>
<path d="M1460 771 c0 -5 5 -13 10 -16 6 -3 10 -2 10 4 0 5 -4 13 -10 16 -5 3
-10 2 -10 -4z"/>
<path d="M528 763 c7 -3 16 -2 19 1 4 3 -2 6 -13 5 -11 0 -14 -3 -6 -6z"/>
<path d="M1360 760 c-9 -6 -10 -10 -3 -10 6 0 15 5 18 10 8 12 4 12 -15 0z"/>
<path d="M1395 761 c-3 -5 -1 -12 5 -16 5 -3 10 1 10 9 0 18 -6 21 -15 7z"/>
<path d="M351 734 c0 -11 3 -14 6 -6 3 7 2 16 -1 19 -3 4 -6 -2 -5 -13z"/>
<path d="M1324 736 c-3 -8 -4 -23 -2 -33 3 -11 6 -6 9 15 6 34 2 42 -7 18z"/>
<path d="M380 730 c-13 -8 -12 -10 3 -10 9 0 17 5 17 10 0 12 -1 12 -20 0z"/>
<path d="M1286 725 c4 -8 8 -15 10 -15 2 0 4 7 4 15 0 8 -4 15 -10 15 -5 0 -7
-7 -4 -15z"/>
<path d="M415 720 c3 -5 8 -10 11 -10 2 0 4 5 4 10 0 6 -5 10 -11 10 -5 0 -7
-4 -4 -10z"/>
<path d="M445 720 c3 -5 10 -10 16 -10 5 0 9 5 9 10 0 6 -7 10 -16 10 -8 0
-12 -4 -9 -10z"/>
<path d="M1465 716 c17 -8 24 -15 16 -16 -8 0 -12 -3 -8 -6 3 -3 16 1 29 10
l22 16 -26 0 c-14 0 -35 2 -45 5 -10 3 -4 -1 12 -9z"/>
<path d="M606 711 c-3 -5 2 -15 12 -22 15 -13 16 -12 4 3 -10 13 -10 17 0 21
9 4 9 6 1 6 -6 1 -14 -3 -17 -8z"/>
<path d="M1252 705 c-11 -12 -10 -15 3 -15 8 0 15 7 15 15 0 18 -2 18 -18 0z"/>
<path d="M1363 707 c0 -8 6 -14 12 -14 6 0 12 6 12 14 0 7 -6 13 -12 13 -6 0
-12 -6 -12 -13z"/>
<path d="M365 699 c-4 -6 -5 -13 -2 -16 7 -7 27 6 27 18 0 12 -17 12 -25 -2z"/>
<path d="M490 689 c0 -13 5 -31 10 -39 7 -11 8 -5 4 20 -8 43 -14 51 -14 19z"/>
<path d="M526 693 c-6 -14 -5 -15 5 -6 7 7 10 15 7 18 -3 3 -9 -2 -12 -12z"/>
<path d="M560 700 c0 -5 5 -10 11 -10 5 0 7 5 4 10 -3 6 -8 10 -11 10 -2 0 -4
-4 -4 -10z"/>
<path d="M336 681 c-4 -6 -3 -11 3 -11 6 0 8 -6 5 -14 -3 -8 -1 -17 5 -21 6
-3 11 -15 11 -26 0 -10 4 -19 8 -19 5 0 9 -7 9 -15 0 -11 -4 -12 -13 -4 -9 8
-11 5 -7 -10 7 -27 33 -15 33 15 0 14 -9 35 -20 47 -11 12 -19 26 -16 33 6 16
-10 39 -18 25z"/>
<path d="M550 671 c0 -5 -8 -11 -17 -14 -10 -2 -4 -4 14 -4 22 0 30 4 26 13
-6 16 -23 19 -23 5z"/>
<path d="M1314 664 c1 -8 7 -19 14 -26 8 -8 11 -6 9 10 0 12 -7 24 -13 26 -7
3 -11 -2 -10 -10z"/>
<path d="M1453 661 c-3 -11 -10 -18 -16 -14 -6 3 -7 1 -3 -5 3 -6 -1 -15 -10
-20 -14 -8 -13 -10 6 -15 16 -4 20 -2 16 9 -3 8 -1 14 4 14 6 0 10 6 10 14 0
8 5 16 12 18 9 3 9 6 -1 12 -8 5 -14 1 -18 -13z"/>
<path d="M438 653 c7 -3 16 -2 19 1 4 3 -2 6 -13 5 -11 0 -14 -3 -6 -6z"/>
<path d="M1357 653 c-4 -3 -7 -11 -7 -17 0 -6 5 -5 12 2 6 6 9 14 7 17 -3 3
-9 2 -12 -2z"/>
<path d="M1400 645 c-8 -9 -8 -15 -2 -15 12 0 26 19 19 26 -2 2 -10 -2 -17
-11z"/>
<path d="M404 639 c-4 -7 -3 -9 4 -5 6 3 15 -2 21 -11 6 -10 11 -13 11 -7 0
20 -27 37 -36 23z"/>
<path d="M494 617 c-5 -13 -10 -14 -25 -7 -15 8 -17 7 -13 -5 8 -20 -15 -19
-40 3 -15 12 -14 9 4 -14 23 -29 26 -29 38 -13 7 10 19 16 26 13 13 -5 31 24
21 34 -2 3 -7 -2 -11 -11z"/>
<path d="M520 619 c0 -5 5 -7 10 -4 6 3 10 8 10 11 0 2 -4 4 -10 4 -5 0 -10
-5 -10 -11z"/>
<path d="M1370 616 c0 -9 5 -16 10 -16 6 0 10 4 10 9 0 6 -4 13 -10 16 -5 3
-10 -1 -10 -9z"/>
<path d="M1407 587 c-3 -9 -2 -19 4 -23 15 -9 18 -2 9 20 -6 17 -7 18 -13 3z"/>
<path d="M397 539 c-3 -13 -1 -19 6 -16 15 5 22 37 9 37 -5 0 -12 -9 -15 -21z"/>
<path d="M1236 453 c6 -4 14 -15 17 -23 5 -11 6 -9 4 4 -1 11 -9 21 -17 23
-10 3 -11 2 -4 -4z"/>
<path d="M1252 370 c0 -14 2 -19 5 -12 2 6 2 18 0 25 -3 6 -5 1 -5 -13z"/>
<path d="M460 246 c0 -2 7 -6 15 -10 8 -3 15 -1 15 4 0 6 -7 10 -15 10 -8 0
-15 -2 -15 -4z"/>
<path d="M1188 223 c7 -3 16 -2 19 1 4 3 -2 6 -13 5 -11 0 -14 -3 -6 -6z"/>
<path d="M838 183 c6 -2 18 -2 25 0 6 3 1 5 -13 5 -14 0 -19 -2 -12 -5z"/>
<path d="M930 171 c0 -6 5 -13 10 -16 6 -3 10 1 10 9 0 9 -4 16 -10 16 -5 0
-10 -4 -10 -9z"/>
<path d="M780 139 c0 -5 5 -7 10 -4 6 3 10 8 10 11 0 2 -4 4 -10 4 -5 0 -10
-5 -10 -11z"/>
<path d="M810 135 c0 -8 2 -15 4 -15 2 0 6 7 10 15 3 8 1 15 -4 15 -6 0 -10
-7 -10 -15z"/>
<path d="M1570 452 c0 -14 30 -20 138 -28 81 -6 92 -5 92 10 0 13 -12 16 -69
16 -37 0 -89 3 -115 6 -29 4 -46 3 -46 -4z"/>
<path d="M200 392 c0 -12 4 -22 9 -22 10 0 9 26 -2 36 -4 4 -7 -2 -7 -14z"/>
<path d="M130 390 c0 -5 5 -10 11 -10 5 0 7 5 4 10 -3 6 -8 10 -11 10 -2 0 -4
-4 -4 -10z"/>
<path d="M1635 390 c-3 -5 1 -10 9 -10 9 0 16 5 16 10 0 6 -4 10 -9 10 -6 0
-13 -4 -16 -10z"/>
<path d="M1786 391 c-4 -7 -5 -15 -2 -18 9 -9 19 4 14 18 -4 11 -6 11 -12 0z"/>
<path d="M85 371 c-3 -5 -1 -12 5 -16 5 -3 10 1 10 9 0 18 -6 21 -15 7z"/>
<path d="M1687 373 c-4 -3 -7 -11 -7 -17 0 -6 5 -5 12 2 6 6 9 14 7 17 -3 3
-9 2 -12 -2z"/>
<path d="M1720 369 c0 -5 5 -7 10 -4 6 3 10 8 10 11 0 2 -4 4 -10 4 -5 0 -10
-5 -10 -11z"/>
<path d="M235 360 c3 -5 8 -10 11 -10 2 0 4 5 4 10 0 6 -5 10 -11 10 -5 0 -7
-4 -4 -10z"/>
<path d="M10 350 c0 -5 5 -10 11 -10 5 0 7 5 4 10 -3 6 -8 10 -11 10 -2 0 -4
-4 -4 -10z"/>
<path d="M190 352 c0 -5 7 -13 16 -16 10 -4 14 -1 12 6 -5 15 -28 23 -28 10z"/>
<path d="M1755 350 c-3 -5 1 -10 9 -10 9 0 16 5 16 10 0 6 -4 10 -9 10 -6 0
-13 -4 -16 -10z"/>
<path d="M78 303 c7 -3 16 -2 19 1 4 3 -2 6 -13 5 -11 0 -14 -3 -6 -6z"/>
<path d="M0 210 c0 -5 5 -10 11 -10 5 0 7 5 4 10 -3 6 -8 10 -11 10 -2 0 -4
-4 -4 -10z"/>
<path d="M70 211 c0 -5 5 -13 10 -16 6 -3 10 -2 10 4 0 5 -4 13 -10 16 -5 3
-10 2 -10 -4z"/>
<path d="M1701 204 c0 -11 3 -14 6 -6 3 7 2 16 -1 19 -3 4 -6 -2 -5 -13z"/>
<path d="M1765 210 c-3 -5 -1 -10 4 -10 6 0 11 5 11 10 0 6 -2 10 -4 10 -3 0
-8 -4 -11 -10z"/>
<path d="M255 170 c-3 -5 -1 -10 4 -10 6 0 11 5 11 10 0 6 -2 10 -4 10 -3 0
-8 -4 -11 -10z"/>
<path d="M1515 170 c3 -5 8 -10 11 -10 2 0 4 5 4 10 0 6 -5 10 -11 10 -5 0 -7
-4 -4 -10z"/>
<path d="M390 120 c0 -5 5 -10 10 -10 6 0 10 5 10 10 0 6 -4 10 -10 10 -5 0
-10 -4 -10 -10z"/>
<path d="M1375 120 c3 -5 8 -10 11 -10 2 0 4 5 4 10 0 6 -5 10 -11 10 -5 0 -7
-4 -4 -10z"/>
<path d="M590 81 c0 -5 5 -13 10 -16 6 -3 10 -2 10 4 0 5 -4 13 -10 16 -5 3
-10 2 -10 -4z"/>
<path d="M1176 81 c-4 -7 -5 -15 -2 -18 9 -9 19 4 14 18 -4 11 -6 11 -12 0z"/>
<path d="M510 60 c0 -5 5 -10 11 -10 5 0 7 5 4 10 -3 6 -8 10 -11 10 -2 0 -4
-4 -4 -10z"/>
<path d="M690 60 c0 -5 5 -10 10 -10 6 0 10 5 10 10 0 6 -4 10 -10 10 -5 0
-10 -4 -10 -10z"/>
<path d="M1640 49 c0 -5 5 -7 10 -4 6 3 10 8 10 11 0 2 -4 4 -10 4 -5 0 -10
-5 -10 -11z"/>
<path d="M1410 40 c0 -5 5 -10 10 -10 6 0 10 5 10 10 0 6 -4 10 -10 10 -5 0
-10 -4 -10 -10z"/>
<path d="M170 30 c0 -5 5 -10 11 -10 5 0 7 5 4 10 -3 6 -8 10 -11 10 -2 0 -4
-4 -4 -10z"/>
<path d="M1170 20 c0 -5 5 -10 10 -10 6 0 10 5 10 10 0 6 -4 10 -10 10 -5 0
-10 -4 -10 -10z"/>
<path d="M1680 20 c0 -5 5 -10 10 -10 6 0 10 5 10 10 0 6 -4 10 -10 10 -5 0
-10 -4 -10 -10z"/>
</g>
</svg>
