<?xml version="1.0" encoding="utf-8"?>
<!-- Generator: Adobe Illustrator 19.2.1, SVG Export Plug-In . SVG Version: 6.00 Build 0)  -->
<svg version="1.1" id="layer" xmlns="http://www.w3.org/2000/svg" xmlns:xlink="http://www.w3.org/1999/xlink" x="0px" y="0px"
	 viewBox="0 0 652 652" style="enable-background:new 0 0 652 652;" xml:space="preserve">
<style type="text/css">
	.st0{fill:#555555;}
</style>
<g>
	<path class="st0" d="M223.9,291.3c-3-2.9-6.1-5-9.4-6.4c-3.3-1.4-7.3-2.1-11.7-2.1c-5.1,0-9.8,1-14.1,2.9c-4.3,1.9-8.1,4.6-11.2,8
		c-3.1,3.4-5.6,7.5-7.4,12.2c-1.8,4.7-2.7,9.8-2.7,15.3c0,5.7,0.9,10.8,2.6,15.5c1.8,4.7,4.2,8.8,7.4,12.2s7,6.1,11.4,8
		c4.4,1.9,9.2,2.9,14.5,2.9c5,0,9.1-0.8,12.5-2.4c3.4-1.6,6.5-4.1,9.4-7.7v7.6h20.3V254.2H224v37.1H223.9z M219.9,334.4
		c-3.4,3.5-7.8,5.2-13.2,5.2c-2.6,0-5-0.5-7.2-1.4c-2.2-0.9-4.1-2.2-5.7-3.8c-1.6-1.6-2.8-3.6-3.7-5.8c-0.9-2.3-1.4-4.7-1.4-7.4
		c0-2.6,0.5-5,1.4-7.3c0.9-2.3,2.2-4.2,3.8-5.8c1.6-1.6,3.6-2.8,5.8-3.7c2.2-0.9,4.7-1.4,7.4-1.4c2.6,0,5,0.5,7.2,1.4
		c2.2,0.9,4.1,2.2,5.7,3.8c1.6,1.6,2.9,3.6,3.8,5.7c0.9,2.2,1.4,4.5,1.4,7.1C225,326.4,223.3,330.9,219.9,334.4z M322.1,306.7
		c-1.9-4.8-4.5-8.9-7.9-12.4c-3.4-3.5-7.4-6.2-12-8.3c-4.6-2-9.6-3-14.9-3c-5.1,0-10,1-14.5,3c-4.5,2-8.4,4.7-11.8,8.2
		c-3.3,3.4-6,7.5-7.9,12.2c-1.9,4.7-2.9,9.7-2.9,15.1c0,5.3,1,10.3,2.9,15c1.9,4.7,4.6,8.7,8,12.1c3.4,3.4,7.4,6.1,11.9,8.1
		c4.6,2,9.5,2.9,14.7,2.9c7.6,0,14.5-2.2,20.6-6.6c5.8-4.2,10.4-9.9,13.7-17.2h-22.3c-2.3,2.2-4.4,3.7-6.3,4.4
		c-1.9,0.8-4.2,1.2-6.9,1.2c-4.3,0-7.9-1.2-10.7-3.7c-2.9-2.4-4.5-5.7-5-9.7h53.5C325.5,320.8,324.9,313.6,322.1,306.7L322.1,306.7z
		 M271.4,313.8c0.8-4,2.7-7.1,5.5-9.3c2.8-2.1,6.3-3.2,10.5-3.2s7.7,1.2,10.6,3.4c2.9,2.3,4.7,5.3,5.5,9h-32.1V313.8z M149.3,257.1
		c-18.2-10.6-41.5-4.3-52,14c-0.6,1-1.1,2.1-1.6,3.2c-3.3-7.2-8.7-13.2-15.6-17.2c-18.2-10.6-41.5-4.3-52,14
		c-10.5,18.4-4.3,41.8,13.9,52.4c5.2,3,10.7,4.6,16.3,5l-16.6,28.8h24.8L94,309.4c0.6-1,1.1-2.1,1.6-3.2c3.3,7.2,8.7,13.2,15.6,17.2
		c5.2,3,10.7,4.6,16.3,5L111,357.3h24.8l27.5-47.9C173.7,291.1,167.5,267.7,149.3,257.1z M76.1,299c-4.8,8.4-15.4,11.2-23.8,6.4
		c-8.3-4.8-11.2-15.5-6.4-23.9s15.4-11.2,23.8-6.4C78.1,280,80.9,290.7,76.1,299z M145.3,299c-4.8,8.4-15.4,11.2-23.8,6.4
		c-8.3-4.8-11.2-15.5-6.4-23.9c4.8-8.4,15.4-11.2,23.8-6.4C147.3,280,150.1,290.7,145.3,299z M472.5,343.3
		c-7.2-1.2-15.5,1.2-24.2-0.2c-8.7-1.4-8.5-4.8-6.4-6.5c19.7,7.5,43.8-2,44-24.9c0-8.4-3-13.7-5.3-16.2c1.8-3.5,3.9-5.2,8.3-6.3
		l-9-15.6c-8.1,0.7-13.5,5.7-15.9,10.9c-4.8-2-14.6-2.2-22.5,0.6c-3.8,1.3-7.3,3.3-10.3,5.9c-2.9,2.5-5.2,5.6-6.7,9.1
		c-1.7,3.7-2.4,7.6-2.4,11.6c0,5.5,1.8,12,4.9,16.4c-8.6,8.5-8.1,21.2,0.8,29.2c-0.9,0.7-1.8,1.5-2.6,2.4c-8,8.8-4.2,21,5,27.4
		c11.7,8.4,32.5,8.9,45.2,3.2C497.7,381.1,498.5,347.7,472.5,343.3z M454.1,299.3c6.5,0,11.8,5.3,11.8,11.8s-5.3,11.8-11.8,11.8
		s-11.8-5.3-11.8-11.8S447.6,299.3,454.1,299.3z M469,372c-2.4,3.3-7.1,4.5-11,4.7c-4.6,0.2-10.8-0.8-13.9-4.6
		c-3-3.6-2.3-8.6,1.8-11.1c1.1-0.7,2.4-1.2,3.7-1.3h10.6c4.6,0,10.5,1.3,10.5,7.1C470.8,368.6,470.1,370.6,469,372z"/>
	<path class="st0" d="M494.2,357.3v-0.1h-0.1L494.2,357.3z M558.7,299c-0.5-1.6-1.2-3.2-2.1-4.6c-0.9-1.4-2.1-2.8-3.5-4.1
		c-2.3-2.3-5.1-4.1-8.4-5.4c-3.3-1.3-6.9-1.9-10.7-1.9c-4.6,0-8.3,0.8-11.3,2.4c-3,1.6-5.7,4.2-8.2,7.7v-7.6h-20.3v71.8h21.4v-40.1
		c0-9.4,4-14.1,12.1-14.1c3.9,0,6.7,1.2,8.5,3.6c1.8,2.4,2.6,6.2,2.6,11.3v39.2h21.4v-44.9c0-2.9-0.1-5.4-0.3-7.5
		C559.6,302.6,559.3,300.7,558.7,299z M600.4,313.5c-9.9-2.6-13.4-4.5-13.4-8.4c0-2.7,2.6-4.8,6.2-4.8c3.5,0,6.4,1.3,6.6,5.4h21
		c-1-14-12-22.5-27.4-22.5c-14.4,0-27.7,9.1-27.7,23.3c0,8.4,4.8,15.5,22.8,21c10.7,3.4,13.1,5.4,13.1,9.4c0,3.3-3.7,5.5-7.5,5.5
		c-4.3,0-7.5-2.1-8.1-6.6h-21.3c1.5,14.6,13,23.7,29.1,23.7c16.2,0,29.1-9.4,29.1-24.4C623,324.8,617.5,318,600.4,313.5L600.4,313.5
		z M402.5,252.1c-7.1,0-12.8,5.8-12.8,12.9s5.7,12.9,12.8,12.9c7.1,0,12.8-5.8,12.8-12.9C415.3,257.9,409.6,252.1,402.5,252.1z
		 M363.6,313.5c-9.9-2.6-13.4-4.5-13.4-8.4c0-2.7,2.6-4.8,6.2-4.8c3.5,0,6.4,1.3,6.6,5.4h21c-1-14-12-22.5-27.4-22.5
		c-14.4,0-27.7,9.2-27.7,23.3c0,8.4,4.8,15.5,22.8,21c10.7,3.3,13.1,5.4,13.1,9.4c0,3.3-3.7,5.5-7.5,5.5c-4.2,0-7.5-2.1-8.1-6.6
		h-21.3c1.5,14.6,13,23.7,29.1,23.7c16.2,0,29.1-9.4,29.1-24.4C386.1,324.8,380.6,318,363.6,313.5L363.6,313.5z M391.8,285.5h21.4
		v71.8h-21.4V285.5z"/>
</g>
</svg>
