<?xml version="1.0" standalone="no"?>
<!DOCTYPE svg PUBLIC "-//W3C//DTD SVG 20010904//EN"
 "http://www.w3.org/TR/2001/REC-SVG-20010904/DTD/svg10.dtd">
<svg version="1.0" xmlns="http://www.w3.org/2000/svg"
 width="219.000000pt" height="206.000000pt" viewBox="0 0 219.000000 206.000000"
 preserveAspectRatio="xMidYMid meet">

<g transform="translate(0.000000,206.000000) scale(0.100000,-0.100000)"
fill="#000000" stroke="red">
<path d="M0 1030 l0 -1030 1095 0 1095 0 0 1030 0 1030 -522 -1 c-331 -1 -495
-5 -448 -10 104 -11 234 -51 338 -103 261 -131 438 -347 528 -642 25 -82 28
-103 28 -264 1 -211 -15 -284 -99 -455 -131 -269 -370 -465 -660 -542 -87 -23
-120 -26 -255 -26 -137 0 -167 3 -254 26 -55 15 -141 47 -192 72 -89 43 -224
137 -272 188 l-23 25 22 43 c12 24 98 203 190 398 l167 354 -44 96 c-49 104
-52 134 -16 139 20 3 28 -7 60 -78 l36 -82 47 101 c49 105 68 121 91 79 6 -13
96 -207 199 -433 143 -314 185 -414 178 -427 -12 -22 -32 -23 -48 -4 -7 8 -85
171 -174 363 -89 191 -166 354 -170 361 -16 24 -34 11 -62 -47 l-28 -60 58
-128 c142 -310 164 -353 182 -353 11 0 24 14 34 38 l15 37 18 -34 c18 -33 18
-35 -9 -102 -29 -75 -48 -97 -67 -81 -7 6 -69 130 -138 275 -69 146 -127 263
-130 260 -3 -2 -77 -160 -166 -351 l-161 -347 20 -22 c33 -37 163 -122 240
-158 135 -62 222 -80 397 -80 131 0 168 4 239 23 422 115 711 487 713 917 1
377 -193 694 -527 860 -154 77 -252 99 -430 99 -120 0 -154 -4 -237 -27 -388
-106 -662 -425 -708 -824 -22 -188 16 -370 117 -562 46 -89 53 -108 44 -128
-6 -13 -15 -23 -21 -23 -18 0 -101 138 -138 228 -56 139 -75 251 -69 422 5
167 26 256 87 388 154 328 459 551 810 591 50 6 -101 9 -452 10 l-528 1 0
-1030z m1580 621 c6 -13 10 -209 10 -568 0 -581 -1 -590 -46 -581 -18 3 -19
18 -24 457 -3 317 -8 455 -16 458 -6 2 -73 -132 -149 -297 -76 -166 -142 -303
-145 -305 -4 -2 -14 10 -22 28 -15 32 -15 33 144 377 87 190 170 369 183 398
25 55 47 66 65 33z"/>
</g>
</svg>
